# Blender v2.82 (sub 7) OBJ File: 'graf_wall.blend'
# www.blender.org
mtllib graf_wall_low.mtl
o graf_wall_low_Plane
v 0.123722 -0.050596 1.736167
v 1.204346 -0.000447 2.145939
v 0.043874 -0.000447 -2.442813
v 1.163393 -0.065690 -1.867896
v 0.005567 1.588483 2.217307
v 1.204346 1.588483 2.217307
v 0.005567 0.926715 -2.442813
v 1.458211 -0.065690 1.838089
v 1.275522 -0.065690 1.451203
v 0.043874 -0.000447 -1.295625
v 0.034208 -0.043926 0.242158
v 0.123722 -0.050596 0.992515
v 0.990709 -0.065690 0.221775
v 0.840807 -0.065690 -0.348992
v 1.228158 -0.065690 -1.357290
v 0.005567 1.262521 -1.281547
v -0.084561 1.588483 0.273498
v 0.005567 1.588483 1.040985
v 0.986605 -0.065690 1.081259
v 1.204346 0.116893 2.150079
v 0.041791 0.116893 2.150079
v 0.040674 0.105044 -2.442813
v 0.041791 0.116893 1.001856
v -0.048337 0.116893 0.247412
v 0.041791 0.092929 -1.294590
v 0.031501 0.128040 2.165779
v 0.030399 0.108150 -2.442813
v 0.031501 0.128040 1.002340
v -0.058626 0.128040 0.247735
v 0.031501 0.100339 -1.294429
v 1.204346 0.128040 2.165779
v 1.235886 -0.000447 1.886481
v 0.760314 -0.000447 0.410838
v 0.674867 -0.000447 1.053975
v 1.121741 -0.000447 1.537946
v 0.984515 -0.000447 -1.344604
v 0.636238 -0.000447 -0.196429
v 0.909491 -0.000447 -1.757611
v 0.782820 -0.003843 -1.450941
v 0.860219 -0.003843 -1.433593
v 0.872229 -0.003843 -1.365535
v 0.829526 -0.003843 -1.166698
v 0.806840 -0.003843 -1.136006
v 0.749458 -0.003843 -0.886459
v 0.670724 -0.003843 -0.866442
v 0.610673 -0.003843 -0.899803
v 0.565300 -0.003843 -0.890462
v 0.553290 -0.003843 -0.913148
v 0.654506 -0.003843 -1.089126
v 0.653734 -0.003843 -1.115383
v 0.684625 -0.003843 -1.188748
v 0.666090 -0.003843 -1.238945
v 0.673813 -0.003843 -1.268291
v 0.714743 -0.003843 -1.318489
v 0.757990 -0.003843 -1.347835
v 0.770346 -0.003843 -1.425834
v 0.794542 0.020532 -1.433233
v 0.850432 0.015574 -1.420060
v 0.859476 0.013228 -1.364615
v 0.815788 0.011234 -1.172303
v 0.792862 0.012231 -1.141946
v 0.733963 0.010014 -0.898942
v 0.669837 0.014811 -0.883298
v 0.610749 0.020627 -0.917062
v 0.570961 0.023659 -0.909275
v 0.568136 0.024050 -0.914787
v 0.669170 0.020743 -1.086183
v 0.668713 0.021569 -1.113416
v 0.701475 0.021073 -1.188866
v 0.683237 0.024057 -1.240348
v 0.689187 0.024195 -1.261935
v 0.727138 0.022409 -1.307523
v 0.774171 0.019463 -1.338784
v 0.788167 0.020692 -1.420745
v 0.681527 0.014946 -1.001261
v 0.669669 0.014946 -1.008159
v 0.349247 0.013177 -0.418471
v 0.355286 0.013177 -0.404692
v 0.356989 -0.000802 -0.379292
v 0.338870 -0.000802 -0.420631
v 0.657811 -0.000802 -1.015057
v 0.693384 -0.000802 -0.994363
v 0.510878 0.007388 -0.689209
v 0.502063 0.007388 -0.699707
v 0.493249 -0.000802 -0.710205
v 0.519692 -0.000802 -0.678712
v 0.359310 -0.068150 1.030049
v 0.296940 -0.000447 0.023196
v 0.495041 -0.000447 0.628522
v 0.041837 -0.044495 0.111362
v 0.311144 -0.064561 1.392112
v 0.043874 -0.000447 0.998751
v 0.043874 -0.000447 2.145939
v -0.031865 -0.000447 -0.000667
v -0.046254 -0.000447 0.245342
v 0.437573 -0.000447 1.425211
v 0.489263 -0.000447 1.037731
v 0.364738 -0.068555 0.644486
v 0.194372 -0.055860 0.122463
vt 0.504941 0.000329
vt 0.504941 0.191988
vt 0.264088 0.196263
vt 0.264088 0.000329
vt 0.245633 0.576636
vt 0.244346 0.765907
vt 0.109372 0.765910
vt 0.054041 0.574512
vt 0.241073 0.008824
vt 0.241071 0.198095
vt 0.000330 0.191722
vt 0.000332 0.000329
vt 0.241069 0.322465
vt 0.000329 0.318216
vt 0.566521 0.782561
vt 0.572707 0.822747
vt 0.509161 0.824627
vt 0.263427 0.322859
vt 0.263427 0.363405
vt 0.244085 0.322518
vt 0.263429 0.198686
vt 0.244086 0.198174
vt 0.263431 0.009613
vt 0.244088 0.008930
vt 0.263427 0.576833
vt 0.263431 0.765907
vt 0.246036 0.765907
vt 0.248033 0.576663
vt 0.527309 0.000329
vt 0.527309 0.191592
vt 0.507958 0.191935
vt 0.507958 0.000329
vt 0.168708 0.899177
vt 0.166630 0.889954
vt 0.168700 0.888940
vt 0.182237 0.886870
vt 0.187470 0.879238
vt 0.195050 0.873149
vt 0.198620 0.872242
vt 0.207077 0.875386
vt 0.219572 0.870273
vt 0.224061 0.870433
vt 0.252489 0.854651
vt 0.253394 0.855125
vt 0.252042 0.861499
vt 0.257509 0.871071
vt 0.254822 0.881332
vt 0.214658 0.890412
vt 0.209614 0.894083
vt 0.177834 0.900800
vt 0.166663 0.901299
vt 0.163804 0.888604
vt 0.177880 0.903292
vt 0.210651 0.896348
vt 0.215710 0.892666
vt 0.256839 0.883334
vt 0.260138 0.870745
vt 0.254639 0.861122
vt 0.256179 0.853868
vt 0.252440 0.851905
vt 0.223436 0.867987
vt 0.219109 0.867831
vt 0.207017 0.872777
vt 0.198744 0.869691
vt 0.193907 0.870916
vt 0.185634 0.877562
vt 0.180797 0.884619
vt 0.167942 0.886577
vt 0.689086 0.783811
vt 0.632381 0.814787
vt 0.423124 0.804988
vt 0.442851 0.780960
vt 0.756623 0.766568
vt 0.756623 0.957831
vt 0.713860 0.963029
vt 0.642120 0.969561
vt 0.581148 0.921944
vt 0.576651 0.870565
vt 0.656416 0.944216
vt 0.705884 0.999671
vt 0.179239 0.961755
vt 0.095084 0.951081
vt 0.113260 0.909234
vt 0.181330 0.921599
vt 0.439492 0.922620
vt 0.345421 0.897914
vt 0.370566 0.864198
vt 0.470652 0.884648
vt 0.189402 0.766568
vt 0.000329 0.766568
vt 0.406763 0.815662
vt 0.506530 0.840927
vt 0.573974 0.839974
vt 0.637836 0.831455
vt 0.402830 0.766568
vt 0.287267 0.842621
vt 0.333619 0.819205
vt 0.335890 0.820180
vt 0.288997 0.844051
vt 0.285537 0.841191
vt 0.331348 0.818230
vt 0.338161 0.821155
vt 0.290727 0.845481
vt 0.237566 0.870233
vt 0.238703 0.872162
vt 0.235293 0.866374
vt 0.236430 0.868303
vt 0.421294 0.782150
vt 0.567549 0.766568
vt 0.443376 0.766568
vn 0.0000 0.0353 -0.9994
vn 0.9997 0.0256 -0.0041
vn 0.9998 0.0178 0.0000
vn 0.9929 0.0202 -0.1176
vn 0.9983 0.0189 0.0559
vn 0.0743 0.9972 -0.0000
vn 0.9982 0.0167 0.0584
vn 0.9927 0.0202 -0.1187
vn 0.9996 0.0266 -0.0003
vn 0.6698 0.7421 0.0267
vn 0.7304 0.6774 -0.0872
vn 0.7348 0.6783 -0.0000
vn 0.4553 0.8903 0.0073
vn -0.0000 0.8154 -0.5789
vn 0.0816 0.9962 0.0289
vn 0.2044 0.5625 -0.8011
vn 0.8199 0.5577 -0.1292
vn 0.7485 0.6414 0.1686
vn 0.5898 0.6839 0.4295
vn 0.6534 0.7404 0.1576
vn 0.1931 0.7092 0.6781
vn -0.3825 0.5688 0.7281
vn 0.1838 0.5467 0.8169
vn -0.7888 0.4475 0.4212
vn -0.7719 0.4453 -0.4537
vn -0.8611 0.5078 0.0276
vn -0.7893 0.5117 -0.3393
vn -0.7972 0.5219 0.3036
vn -0.8341 0.5047 -0.2226
vn -0.6581 0.5126 -0.5515
vn -0.4545 0.5462 -0.7036
vn -0.7907 0.5991 -0.1257
vn -0.7144 0.5996 -0.3607
vn 0.9981 0.0191 0.0582
vn 0.5682 0.5810 -0.5827
vn 0.0609 0.8290 -0.5558
vn 0.1659 0.9859 -0.0206
vn 0.2647 0.9509 -0.1604
vn 0.2403 0.9632 -0.1204
vn 0.0873 0.9959 -0.0216
vn 0.1512 0.9841 -0.0928
vn 0.2889 0.9550 -0.0668
vn 0.2761 0.9608 0.0261
vn 0.2113 0.9717 -0.1050
vn 0.1238 0.9893 -0.0775
vn 0.1637 0.9862 0.0228
vn 0.2433 0.9693 -0.0349
vn 0.2931 0.9545 0.0545
vn 0.1124 0.9936 -0.0066
vn 0.1337 0.9910 -0.0047
vn 0.6919 0.7217 0.0199
vn 0.8152 0.5788 -0.0211
vn -0.0768 0.9931 0.0880
vn -0.2018 0.9789 0.0309
vn -0.2261 0.9739 -0.0175
vn -0.1818 0.9815 -0.0591
vn 0.7362 0.6643 0.1290
vn -0.3269 0.9291 -0.1728
vn -0.4892 0.8721 0.0105
vn -0.1357 0.9234 0.3591
vn 0.3128 0.9343 0.1707
vn -0.6004 0.7321 -0.3217
vn -0.7378 0.6746 -0.0226
vn -0.0487 0.8974 0.4386
vn 0.5760 0.7548 0.3138
vn 0.2990 0.9367 0.1820
vn 0.5832 0.7427 0.3289
vn -0.5945 0.7407 -0.3128
vn -0.3291 0.9306 -0.1604
vn -0.1166 0.9715 0.2065
vn 0.2132 0.9621 0.1699
vn 0.3008 0.9536 -0.0078
vn 0.1091 0.9889 -0.1007
vn 0.2956 0.9552 -0.0140
vn 0.8603 0.5074 -0.0500
vn 0.8654 0.5004 -0.0257
vn -0.1927 0.9782 -0.0768
vn -0.2076 0.9780 -0.0192
vn -0.2130 0.9763 0.0393
usemtl graf_wall_1
s off
f 31/1/1 26/2/1 5/3/1 6/4/1
f 30/5/2 27/6/2 7/7/2 16/8/2
f 26/9/3 28/10/3 18/11/3 5/12/3
f 28/10/4 29/13/4 17/14/4 18/11/4
f 29/13/5 30/5/5 16/8/5 17/14/5
f 12/15/6 87/16/6 98/17/6
f 95/18/7 94/19/7 24/20/7
f 92/21/8 95/18/8 24/20/8 23/22/8
f 93/23/3 92/21/3 23/22/3 21/24/3
f 10/25/9 3/26/9 22/27/9 25/28/9
f 2/29/1 93/30/1 21/31/1 20/32/1
f 24/20/10 25/28/10 30/5/10 29/13/10
f 23/22/11 24/20/11 29/13/11 28/10/11
f 21/24/12 23/22/12 28/10/12 26/9/12
f 25/28/13 22/27/13 27/6/13 30/5/13
f 20/32/14 21/31/14 26/2/14 31/1/14
f 58/33/15 57/34/15 74/35/15 73/36/15 72/37/15 71/38/15 70/39/15 69/40/15 68/41/15 67/42/15 66/43/15 65/44/15 64/45/15 63/46/15 62/47/15 61/48/15 60/49/15 59/50/15
f 57/34/16 58/33/16 40/51/16 39/52/16
f 58/33/17 59/50/17 41/53/17 40/51/17
f 59/50/18 60/49/18 42/54/18 41/53/18
f 60/49/19 61/48/19 43/55/19 42/54/19
f 61/48/20 62/47/20 44/56/20 43/55/20
f 62/47/21 63/46/21 45/57/21 44/56/21
f 63/46/22 64/45/22 46/58/22 45/57/22
f 64/45/23 65/44/23 47/59/23 46/58/23
f 65/44/24 66/43/24 48/60/24 47/59/24
f 66/43/25 67/42/25 49/61/25 48/60/25
f 67/42/26 68/41/26 50/62/26 49/61/26
f 68/41/27 69/40/27 51/63/27 50/62/27
f 69/40/28 70/39/28 52/64/28 51/63/28
f 70/39/29 71/38/29 53/65/29 52/64/29
f 71/38/30 72/37/30 54/66/30 53/65/30
f 72/37/31 73/36/31 55/67/31 54/66/31
f 73/36/32 74/35/32 56/68/32 55/67/32
f 74/35/33 57/34/33 39/52/33 56/68/33
f 24/20/34 94/19/34 10/25/34 25/28/34
f 1/69/6 91/70/6 87/16/6 12/15/6
f 98/17/6 99/71/6 11/72/6 12/15/6
s 1
f 93/73/35 2/74/36 32/75/37
f 9/76/38 19/77/39 34/78/40 35/79/41
f 8/80/42 9/76/38 35/79/41 32/75/37
f 15/81/43 4/82/44 38/83/45 36/84/46
f 13/85/47 14/86/48 37/87/49 33/88/50
f 14/86/48 15/81/43 36/84/46 37/87/49
f 36/84/46 38/83/45 10/89/51
f 10/89/51 38/83/45 3/90/52
f 3/90/52 38/83/45 4/82/44
f 33/88/50 37/87/49 88/91/53 89/92/54
f 35/79/41 34/78/40 97/93/55 96/94/56
f 32/75/37 2/74/36 8/80/42
f 37/87/49 36/84/46 10/89/51 94/95/57 88/91/53
f 32/75/37 35/79/41 93/73/35
f 33/88/50 34/78/40 19/77/39 13/85/47
f 84/96/58 77/97/59 78/98/60 83/99/61
f 85/100/62 80/101/63 77/97/59 84/96/58
f 77/97/59 80/101/63 79/102/64 78/98/60
f 83/99/61 78/98/60 79/102/64 86/103/65
f 75/104/66 83/99/61 86/103/65 82/105/67
f 81/106/68 85/100/62 84/96/58 76/107/69
f 76/107/69 84/96/58 83/99/61 75/104/66
f 89/92/54 97/93/55 34/78/40 33/88/50
f 99/71/70 90/108/71 11/72/72
f 96/94/56 93/73/35 35/79/41
f 1/69/73 12/15/74 92/109/75 93/73/35
f 11/72/72 90/108/71 94/95/57 95/110/76
f 12/15/74 11/72/72 95/110/76 92/109/75
f 91/70/77 1/69/73 93/73/35 96/94/56
f 87/16/78 91/70/77 96/94/56 97/93/55
f 98/17/79 87/16/78 97/93/55 89/92/54
f 99/71/70 98/17/79 89/92/54 88/91/53
f 90/108/71 99/71/70 88/91/53 94/95/57
